#N canvas 1 23 1416 814 10;
#X obj 463 508 output~;
#X obj 275 162 delwrite~ chanLeft 4000;
#X obj 525 164 delwrite~ chanRight 4000;
#X obj 374 429 vd~ chanLeft;
#X obj 545 429 vd~ chanRight;
#X obj 340 387 sig~;
#X obj 546 383 sig~;
#X floatatom 319 331 5 0 0 0 - - -;
#X floatatom 526 338 5 0 0 0 - - -;
#X obj 715 581 *~;
#X obj 781 584 *~;
#X obj 717 273 vsl 15 128 0 0.999 0 0 empty empty empty 0 -9 0 10 -260097
-1 -1 4000 1;
#X floatatom 846 456 5 0 0 0 - - -;
#X obj 783 280 vsl 15 128 0 0.999 0 0 empty empty empty 0 -9 0 10 -260097
-1 -1 6400 1;
#X obj 986 56 openpanel;
#X msg 989 86 open \$1;
#X obj 987 120 readsf~;
#X obj 995 23 bng 15 250 50 0 empty empty empty 17 7 0 10 -262144 -1
-1;
#X obj 1007 180 output~;
#X msg 922 88 1;
#X obj 994 610 osc~;
#X obj 1133 266 bng 15 250 50 0 empty empty empty 17 7 0 10 -262144
-1 -1;
#X floatatom 1023 330 5 0 0 0 - - -;
#X obj 1089 379 +;
#X floatatom 1083 431 5 0 0 0 - - -;
#X floatatom 1144 370 5 0 0 0 - - -;
#X obj 1182 471 -;
#X floatatom 1279 513 5 0 0 0 - - -;
#X obj 1312 615 osc~;
#X obj 1281 375 random 5;
#X obj 1351 403 +;
#X floatatom 1399 365 5 0 0 0 - - -;
#X obj 1131 330 random 90;
#X obj 884 248 noise~;
#X floatatom 841 410 5 0 0 0 - - -;
#X obj 384 69;
#X obj 930 690 output~;
#X obj 1095 534 noise~;
#X floatatom 1164 565 5 0 0 0 - - -;
#X obj 1103 594 bp~;
#X floatatom 1168 596 5 0 0 0 - - -;
#X obj 1068 563 *~;
#X obj 1150 539 hsl 128 15 0 0.9 0 0 empty empty empty -2 -8 0 10 -262144
-1 -1 11600 1;
#X connect 3 0 0 0;
#X connect 3 0 9 0;
#X connect 4 0 0 1;
#X connect 4 0 10 0;
#X connect 5 0 3 0;
#X connect 6 0 4 0;
#X connect 7 0 5 0;
#X connect 8 0 6 0;
#X connect 9 0 1 0;
#X connect 10 0 2 0;
#X connect 11 0 9 1;
#X connect 11 0 12 0;
#X connect 13 0 34 0;
#X connect 13 0 10 1;
#X connect 14 0 15 0;
#X connect 15 0 16 0;
#X connect 16 0 18 0;
#X connect 16 0 18 1;
#X connect 16 0 2 0;
#X connect 16 0 1 0;
#X connect 17 0 14 0;
#X connect 19 0 16 0;
#X connect 21 0 22 0;
#X connect 21 0 29 0;
#X connect 21 0 32 0;
#X connect 22 0 23 0;
#X connect 23 0 24 0;
#X connect 24 0 20 0;
#X connect 24 0 26 0;
#X connect 25 0 23 1;
#X connect 26 0 27 0;
#X connect 27 0 28 0;
#X connect 29 0 30 0;
#X connect 30 0 26 1;
#X connect 31 0 30 1;
#X connect 32 0 25 0;
#X connect 35 0 1 0;
#X connect 35 0 0 0;
#X connect 35 1 2 0;
#X connect 35 1 0 1;
#X connect 37 0 41 0;
#X connect 38 0 39 1;
#X connect 39 0 36 0;
#X connect 39 0 36 1;
#X connect 40 0 39 2;
#X connect 41 0 39 0;
#X connect 42 0 41 1;
