#N canvas 0 22 1227 728 10;
#X obj 470 454 dac~;
#X obj 419 385 osc~;
#X obj 558 41 bng 15 250 50 0 empty empty empty 17 7 0 10 -262144 -1
-1;
#X floatatom 448 105 5 0 0 0 - - -;
#X obj 514 154 +;
#X floatatom 508 206 5 0 0 0 - - -;
#X floatatom 569 145 5 0 0 0 - - -;
#X obj 556 105 random 30;
#X obj 607 246 -;
#X floatatom 704 288 5 0 0 0 - - -;
#X obj 737 390 osc~;
#X obj 726 447 dac~;
#X obj 706 150 random 5;
#X obj 776 178 +;
#X floatatom 824 140 5 0 0 0 - - -;
#X connect 1 0 0 0;
#X connect 2 0 3 0;
#X connect 2 0 7 0;
#X connect 2 0 12 0;
#X connect 3 0 4 0;
#X connect 4 0 5 0;
#X connect 5 0 1 0;
#X connect 5 0 8 0;
#X connect 6 0 4 1;
#X connect 7 0 6 0;
#X connect 8 0 9 0;
#X connect 9 0 10 0;
#X connect 10 0 11 0;
#X connect 10 0 11 1;
#X connect 12 0 13 0;
#X connect 13 0 8 1;
#X connect 14 0 13 1;
